<svg xmlns="http://www.w3.org/2000/svg" viewBox="0 0 160 72" preserveAspectRatio="none" shape-rendering="crispEdges"><rect width="160" height="72" fill="#1d2b6b"/><rect y="12" width="160" height="12" fill="#26388a"/><rect y="24" width="160" height="10" fill="#3150a8"/><rect x="12" y="6" width="1" height="1" fill="#fff"/><rect x="47" y="3" width="1" height="1" fill="#c8ceff"/><rect x="96" y="8" width="1" height="1" fill="#fff"/><rect x="133" y="4" width="1" height="1" fill="#c8ceff"/><rect x="122" y="10" width="6" height="6" fill="#f5e6a8"/><rect x="123" y="9" width="4" height="8" fill="#f5e6a8"/><path d="M0 44 L14 34 L26 42 L40 30 L56 42 L70 36 L84 44 L100 32 L116 42 L132 34 L148 42 L160 38 L160 48 L0 48 Z" fill="#2a3a5e"/><rect y="46" width="160" height="26" fill="#2f7a3a"/><rect y="46" width="160" height="2" fill="#4da34f"/><rect x="8" y="54" width="3" height="1" fill="#4da34f"/><rect x="38" y="60" width="3" height="1" fill="#4da34f"/><rect x="71" y="55" width="3" height="1" fill="#4da34f"/><rect x="104" y="63" width="3" height="1" fill="#4da34f"/><rect x="139" y="57" width="3" height="1" fill="#4da34f"/></svg>
